<?xml version="1.0" encoding="utf-8"?>
<!-- Generator: Adobe Illustrator 15.1.0, SVG Export Plug-In . SVG Version: 6.00 Build 0)  -->
<!DOCTYPE svg PUBLIC "-//W3C//DTD SVG 1.1//EN" "http://www.w3.org/Graphics/SVG/1.1/DTD/svg11.dtd">
<svg version="1.1" id="Capa_1" xmlns="http://www.w3.org/2000/svg" xmlns:xlink="http://www.w3.org/1999/xlink" x="0px" y="0px"
	 width="157.039px" height="119.905px" viewBox="22.807 20.157 157.039 119.905"
	 enable-background="new 22.807 20.157 157.039 119.905" xml:space="preserve">
<g>
	<path fill="#FFFFFF" d="M77.504,62.119c0-14.57-2.808-20.874-11.496-20.874c-9.759,0-12.032,10.227-12.032,38.525
		c0,30.26,4.011,35.724,12.299,35.724c6.951,0,12.032-3.783,12.032-25.356h19.249c0,21.574-5.081,40.205-30.346,40.205
		c-28.875,0-32.485-21.572-32.485-51.973c0-30.399,3.61-51.973,32.485-51.973c27.538,0,29.544,21.153,29.544,35.724L77.504,62.119
		L77.504,62.119z"/>
	<path fill="#FFFFFF" d="M124.694,28.357h23.795l25.264,100.023h-20.051l-4.411-21.152h-25.399l-4.411,21.152H99.428L124.694,28.357
		z M127.234,90.696h18.715l-9.224-44.968h-0.268L127.234,90.696z"/>
</g>
</svg>
