<svg version="1.1" id="Capa_1" xmlns="http://www.w3.org/2000/svg" xmlns:xlink="http://www.w3.org/1999/xlink" x="0px" y="0px"
	 width="252px" height="141px" viewBox="0 0 252 141" enable-background="new 0 0 252 141" xml:space="preserve">
<g>
	<g>
		<g>
			<path fill="#FFFFFF" d="M29.195,83.989H18.203v-8.848h12.064l2.547-20.644H21.152v-8.847H34.02l3.352-27.212h8.848l-3.352,27.212
				h14.209l3.352-27.212h8.847l-3.351,27.212h10.455v8.847H64.717L62.17,75.141h11.126v8.848H61.098l-3.485,27.479h-8.847
				l3.485-27.479h-14.21l-3.484,27.479h-8.848L29.195,83.989z M39.115,75.141h14.209l2.547-20.644H41.662L39.115,75.141z"/>
		</g>
	</g>
	<g>
		<path fill="#3F2D81" d="M83.564,16.377h11.397c9.659,0,11.397,6.615,11.397,16.758c0,12.219-2.608,17.724-11.832,17.724H83.564
			V16.377z M90.518,45.74h3.091c4.83,0,5.795-3.042,5.795-12.411c0-7.824-0.627-11.832-5.939-11.832h-2.946V45.74z"/>
		<path fill="#3F2D81" d="M121.958,15.701c10.432,0,11.735,7.438,11.735,17.917c0,10.48-1.304,17.918-11.735,17.918
			s-11.735-7.438-11.735-17.918C110.223,23.138,111.527,15.701,121.958,15.701z M121.958,46.417c4.105,0,4.781-3.526,4.781-12.799
			c0-9.225-0.676-12.798-4.781-12.798s-4.781,3.573-4.781,12.798C117.177,42.89,117.853,46.417,121.958,46.417z"/>
		<path fill="#3F2D81" d="M145.817,16.377l8.403,23.615h0.096V16.377h6.375v34.481h-7.92l-8.5-24.147h-0.096v24.147H137.8V16.377
			H145.817z"/>
		<path fill="#3F2D81" d="M172.234,16.377h8.598l9.127,34.481h-7.244l-1.594-7.292h-9.176l-1.594,7.292h-7.244L172.234,16.377z
			 M173.152,37.868h6.762l-3.332-15.502h-0.098L173.152,37.868z"/>
		<path fill="#3F2D81" d="M209.906,16.377v5.698h-7.534v28.783h-6.954V22.076h-7.534v-5.698H209.906z"/>
		<path fill="#3F2D81" d="M232.169,16.377v5.698h-12.314v8.113h11.59v5.698h-11.59v9.273h12.798v5.698H212.9V16.377H232.169z"/>
	</g>
	<g>
		<path fill="#FFFFFF" d="M109.569,55.268h14.894v56.565h-16.953l-8.794-34.858h-0.159v34.858H84.138V55.268h17.191l8.08,34.541
			h0.159V55.268z"/>
		<path fill="#FFFFFF" d="M149.817,54.159c20.36,0,20.36,11.884,20.36,29.393c0,18.062,0,29.392-20.36,29.392
			s-20.36-11.329-20.36-29.392C129.457,66.042,129.457,54.159,149.817,54.159z M149.817,64.616c-3.406,0-4.04,2.377-4.04,18.936
			c0,16.557,0.634,18.934,4.04,18.934c3.407,0,4.04-2.377,4.04-18.934C153.857,66.993,153.224,64.616,149.817,64.616z"/>
		<path fill="#FFFFFF" d="M218.904,55.268h14.894l-9.349,56.565h-16.953l-4.754-38.027h-0.158l-4.516,38.027h-17.271l-9.269-56.565
			h15.369l3.724,40.087h0.158l4.991-40.087h13.943l5.625,40.087h0.159L218.904,55.268z"/>
	</g>
	<g>
		<path fill="#006865" d="M91.424,84.318c-2.05,0.523-2.621-0.048-2.621-1.001c0-1.478,2.001-1.668,3.002-1.954
			c7.005-1.906,14.2-3.098,21.491-3.098c3.384,0,3.526,0.477,3.526,1.239c0,1.001-0.333,1.239-3.859,1.478
			c-5.767,0.381-8.673,0.429-10.389,0.81c1.001,0.382,0.715,1.001-0.143,2.431c-4.099,5.861-12.199,20.491-13.677,27.21
			c-0.143,0.572-0.381,1.525-1.144,1.525c-1.001,0-1.668-1.001-1.668-1.906c0-2.192,3.479-9.245,4.574-11.484
			c5.576-10.008,9.055-15.821,9.96-17.299C94.617,83.174,91.424,84.27,91.424,84.318z"/>
		<path fill="#006865" d="M115.295,86.223c1.905-4.67,3.24-5.289,3.764-5.432c0.668,0,1.239,0.762,1.239,1.382
			c0,0.857-0.953,2.097-1.382,2.716l-5.433,9.436c-0.905,1.906-2.001,3.812-2.859,5.766l0.096,0.096
			c1.001-1.287,5.242-4.766,6.814-4.766c0.477,0,1.049,0.144,1.239,0.62c0.19,0.523,0.048,1.334-0.953,2.668
			c-1.001,1.335-4.003,5.813-4.003,7.481c0,0.43,0.19,0.715,0.667,0.715c2.001,0,4.384-5.67,5.575-5.67
			c0.524,0,1.335,0.285-1.144,3.955c-2.097,3.145-4.003,4.526-5.385,4.718c-1.43,0.238-2.287-0.715-2.287-2.192
			c0-2.955,2.335-6.242,3.765-8.721c-1.858,0.953-6.195,4.766-8.482,10.96c-0.619,1.668-2.049,0.953-2.049-0.238
			c0-1,1-3.24,1.43-4.193L115.295,86.223z"/>
		<path fill="#006865" d="M127.968,106.286l-0.096-0.096c-0.905,1.668-2.431,4.289-4.622,4.289c-1.764,0-2.526-1.716-2.526-3.24
			c0-4.432,4.861-12.818,9.77-12.818c1.048,0,2.335,0.715,2.335,1.905c0,0.572-0.19,1.001-0.429,1.525
			c0.238,0.286,0.381,0.524,0.381,0.905c0,0.619-0.429,1.191-0.715,1.668c-0.857,1.43-2.192,4.812-2.192,6.48
			c0,1.001,0.334,1.764,1.239,2.192c0.524,0.238,1.001,0.524,1.001,1.191s-0.572,1.096-1.191,1.096c-1.716,0-3.05-1.477-3.05-3.717
			L127.968,106.286z M129.635,97.041c-2.954,0-6.433,6.768-6.433,9.341c0,0.571,0.238,1.286,0.953,1.286
			c2.764-0.19,5.146-8.577,6.862-9.578C130.732,97.565,130.35,97.041,129.635,97.041z"/>
		<path fill="#006865" d="M141.356,97.517c0,1.049-2.002,3.146-2.287,4.193l0.095,0.096c1.191-1.382,5.48-5.623,7.243-5.623
			c0.62,0,1.001,0.429,1.001,1.144c-0.048,1.62-5.289,5.385-5.527,11.294c0,2.049,1.048,2.812,1.048,3.431
			c0,0.524-0.477,1.001-1.001,1.001c-1.905,0-2.382-2.954-2.382-4.384c0-2.479,1.144-5.146,2.478-7.101l-0.096-0.095
			c-2.478,1.62-4.193,4.098-5.623,6.719c-0.381,0.667-1,2.145-2.001,2.145c-0.715,0-1.096-0.524-1.096-1.191
			c0-0.763,0.571-1.954,0.905-2.669c0.857-1.716,4.718-10.007,6.194-10.007C140.879,96.469,141.356,96.946,141.356,97.517z"/>
		<path fill="#006865" d="M150.932,102.569l0.096,0.095c1.286-1.524,2.716-3.05,4.336-4.288c1.049-0.763,4.193-2.479,5.48-2.479
			c0.477,0,0.81,0.429,0.81,0.858c0,0.667-0.523,0.953-1.096,1.096c-1.382,0.429-2.669,1.001-3.812,1.858
			c-0.715,1.811-1.62,3.955-1.62,5.909c0,1.001,0.382,2.621,1.668,2.621c2.24,0,5.099-3.384,6.29-5.146
			c0.334-0.43,0.62-0.953,1.239-0.953c0.334,0,0.572,0.238,0.572,0.571c0,0.811-1.716,3.098-2.192,3.67
			c-1.478,2.001-3.955,4.432-6.624,4.432c-2.478,0-3.192-2.621-3.192-4.718c0-1.239,0.286-2.431,0.571-3.67
			c-1.715,1.525-2.954,3.526-4.146,5.433c-0.429,0.667-1.334,2.479-2.287,2.479c-0.524,0-0.905-0.62-0.905-1.049
			c0-2.001,6.1-13.485,7.386-15.773c1.954-3.288,9.055-14.01,13.104-14.01c0.905,0,1.573,0.857,1.573,1.764
			c0,5.623-10.865,14.772-15.345,17.679L150.932,102.569z M161.702,89.226c0.905-1.049,3.955-4.861,3.955-6.243
			c0-0.333-0.143-0.619-0.523-0.619c-2.526,0-9.341,10.627-10.532,13.104C157.222,93.752,159.605,91.561,161.702,89.226z"/>
		<path fill="#006865" d="M184.189,97.947c0.477-0.668,1.573-2.383,2.526-2.383c0.571,0,1.048,0.523,1.048,1.096
			c0,0.811-0.571,1.716-0.953,2.383c-1.668,2.812-3.383,5.623-4.526,8.721c1.667-0.858,4.717-3.955,5.527-5.528
			c0.19-0.381,0.429-1,0.953-1c0.381,0,0.715,0.333,0.715,0.714c0,1.097-1.764,3.336-2.431,4.099
			c-1.763,2.001-4.003,3.717-6.338,5.004c-1.858,4.193-5.575,14.248-11.056,14.248c-1.811,0-3.05-1.572-3.05-3.336
			c0-3.431,2.669-6.957,12.009-11.961c0.905-2.287,2.097-4.432,3.098-6.528l-0.096-0.096c-1.62,1.954-4.955,6.243-7.72,6.243
			c-1,0-1.668-0.811-1.668-1.764c0-2.239,1.906-5.385,3.146-7.1c0.715-0.953,3.24-4.479,4.575-4.479c0.523,0,1.048,0.429,1.048,1
			c0,0.811-0.763,1.525-1.286,2.05c-1.097,1.144-4.575,5.003-4.575,6.576c0,0.381,0.238,0.571,0.572,0.571
			c1.572,0,6.29-5.527,7.243-6.814L184.189,97.947z M177.232,113.004c-2.716,1.287-8.101,5.29-8.101,8.482
			c0,0.715,0.523,1.239,1.238,1.239c2.145,0,4.241-4.003,4.956-5.671l1.239-2.621L177.232,113.004z"/>
		<path fill="#006865" d="M201.247,96.802c0,2.669-1.478,5.671-2.812,7.958c-1.287,2.24-3.669,5.767-6.576,5.767
			c-1.62,0-2.431-1.478-2.431-2.954c0-2.765,1.62-6.195,3.241-8.388c1.334-1.763,4.098-4.812,6.48-4.812
			C200.674,94.373,201.247,95.374,201.247,96.802z M196.052,102.855c0-0.334,3.002-3.098,3.002-4.956
			c0-0.477-0.238-0.858-0.715-0.858c-1.238,0-3.573,2.907-4.241,3.812c-0.952,1.334-2.287,3.955-2.287,5.623
			c0,0.62,0.286,1.287,1.049,1.287c1.62,0,3.336-2.669,3.859-4.099C196.481,103.474,196.052,103.188,196.052,102.855z"/>
		<path fill="#006865" d="M203.055,110.431c-1.716,0-2.383-1.524-2.383-3.002c-0.048-3.859,4.718-11.008,6.672-10.912
			c0.477,0,0.953,0.381,0.953,0.857c0,0.857-2.097,2.431-3.955,5.861c-0.43,0.811-1.287,2.859-1.287,3.812
			c0,0.333,0.238,0.715,0.667,0.715c1.716,0,4.623-5.433,5.146-6.958c0.382-1.048,1.382-3.765,2.812-3.765
			c0.524,0,0.953,0.572,0.953,1.049c0,2.001-2.812,4.718-2.812,7.577c0,1.382,0.429,2.573,1.668,3.24
			c0.524,0.286,1.001,0.571,1.001,1.286c0,0.763-0.715,1.097-1.382,1.097c-1.144,0-2.335-0.905-2.812-1.906
			c-0.477-0.858-0.524-1.906-0.62-2.907C206.582,107.906,205.009,110.431,203.055,110.431z"/>
		<path fill="#006865" d="M216.348,109.716c0,1.287-0.81,3.765-2.383,3.765c-0.715,0-1.096-0.619-1.096-1.286
			c0-1.097,0.905-3.765,2.287-3.765C215.872,108.43,216.348,109.049,216.348,109.716z M229.453,81.03
			c0.334-0.715,0.715-1.764,1.668-1.764c0.715,0,1.096,0.667,1.096,1.287c0,1.43-2.097,4.86-2.764,6.146l-10.627,18.204
			c-0.238,0.524-0.619,1.191-1.286,1.191c-0.715,0-1.191-0.905-1.191-1.525c0-1.334,2.002-3.907,2.716-5.099L229.453,81.03z"/>
	</g>
</g>
</svg>
