<?xml version="1.0" encoding="utf-8"?>
<!-- Generator: Adobe Illustrator 15.1.0, SVG Export Plug-In . SVG Version: 6.00 Build 0)  -->
<!DOCTYPE svg PUBLIC "-//W3C//DTD SVG 1.1//EN" "http://www.w3.org/Graphics/SVG/1.1/DTD/svg11.dtd">
<svg version="1.1" id="Capa_1" xmlns="http://www.w3.org/2000/svg" xmlns:xlink="http://www.w3.org/1999/xlink" x="0px" y="0px"
	 width="157.039px" height="119.905px" viewBox="22.808 20.157 157.039 119.905"
	 enable-background="new 22.808 20.157 157.039 119.905" xml:space="preserve">
<g>
	<path fill="#FFFFFF" d="M91.591,30.096v16.531H53.388v23.535h35.957v16.531H53.388v26.897H93.09v16.53H31.814V30.096H91.591z"/>
	<path fill="#FFFFFF" d="M121.251,98.881v2.942c0,9.386,2.847,15.41,14.232,15.41c6.593,0,12.885-3.923,12.885-12.328
		c0-9.106-4.943-12.469-19.176-17.091c-19.177-6.164-28.017-13.588-28.017-30.259c0-19.473,12.734-29.419,33.11-29.419
		c19.176,0,33.11,7.705,33.11,26.897v2.802h-20.675c0-9.385-3.447-14.849-11.687-14.849c-9.739,0-12.286,5.744-12.286,11.628
		c0,6.164,1.947,9.947,11.087,13.588l16.63,6.724c16.181,6.584,20.375,14.289,20.375,26.477c0,21.154-13.783,30.68-37.155,30.68
		c-24.42,0-34.01-10.646-34.01-29.139v-4.062L121.251,98.881L121.251,98.881z"/>
</g>
</svg>
