<?xml version="1.0" encoding="utf-8"?>
<!-- Generator: Adobe Illustrator 15.1.0, SVG Export Plug-In . SVG Version: 6.00 Build 0)  -->
<!DOCTYPE svg PUBLIC "-//W3C//DTD SVG 1.1//EN" "http://www.w3.org/Graphics/SVG/1.1/DTD/svg11.dtd">
<svg version="1.1" id="Capa_1" xmlns="http://www.w3.org/2000/svg" xmlns:xlink="http://www.w3.org/1999/xlink" x="0px" y="0px"
	 width="205px" height="205px" viewBox="0 0 205 205" enable-background="new 0 0 205 205" xml:space="preserve">
<path fill="#FFFFFF" d="M36.729,8.5c43.847,0,87.694,0,131.54,0c15.635,3.187,25.03,12.61,28.23,28.23c0,43.846,0,87.693,0,131.54
	c-3.195,15.625-12.605,25.034-28.23,28.229c-12.113,0-24.227,0-36.339,0c0-23.625,0-47.25,0-70.875c10.312,0,20.622,0,30.933,0
	c0.698-9.812,0.104-20.92,0.301-31.232c-9.812-0.701-20.922-0.102-31.232-0.302c0.729-7.808-2.091-17.195,3.305-20.121
	c3.146-1.706,9.059-0.601,13.813-0.601c4.846,0,9.618,0.245,13.813-0.3c0.701-9.71,0.102-20.723,0.301-30.934
	c-12.496,0.046-26.409-1.788-35.737,1.501c-17.154,6.05-27.073,24.306-24.926,50.454c-7.608,0-15.216,0-22.824,0
	c-0.699,9.812-0.102,20.921-0.3,31.233c7.112,0.696,15.513,0.104,23.125,0.301c0,23.625,0,47.25,0,70.875
	c-21.923,0-43.847,0-65.771,0c-15.619-3.199-25.044-12.596-28.229-28.229c0-43.848,0-87.693,0-131.54
	C11.693,21.104,21.096,11.688,36.729,8.5z"/>
</svg>
