<svg version="1.1" id="Capa_1" xmlns="http://www.w3.org/2000/svg" xmlns:xlink="http://www.w3.org/1999/xlink" x="0px" y="0px" width="205px" height="205px" viewBox="0 0 205 205" enable-background="new 0 0 205 205" xml:space="preserve">
<g>
<path fill="#FFFFFF" d="M194.117,174.188c0,11.007-8.922,19.929-19.929,19.929H30.812c-11.007,0-19.929-8.922-19.929-19.929V30.812c0-11.008,8.922-19.93,19.929-19.93h143.377c11.007,0,19.929,8.922,19.929,19.93V174.188z M176.342,28.874H29.09v147.252h147.252V28.874z"/>
<g>
<rect x="55.263" y="90.997" transform="matrix(0.7071 -0.7071 0.7071 0.7071 -64.9369 77.7275)" fill="#FFFFFF" width="12.188" height="52.504"/>
<rect x="55.263" y="62.58" transform="matrix(-0.707 -0.7072 0.7072 -0.707 41.9121 195.0259)" fill="#FFFFFF" width="12.189" height="52.502"/>
</g>
<g>
<rect x="136.803" y="62.578" transform="matrix(-0.7071 0.7071 -0.7071 -0.7071 306.7531 50.5998)" fill="#FFFFFF" width="12.188" height="52.505"/>
<rect x="136.802" y="90.997" transform="matrix(0.707 0.7072 -0.7072 0.707 124.7823 -66.7039)" fill="#FFFFFF" width="12.189" height="52.504"/>
</g>
</g>
</svg>