<svg version="1.1" id="Capa_1" xmlns="http://www.w3.org/2000/svg" xmlns:xlink="http://www.w3.org/1999/xlink" x="0px" y="0px"
	 width="323.984px" height="317.983px" viewBox="0 0 323.984 317.983" enable-background="new 0 0 323.984 317.983"
	 xml:space="preserve">
<g id="msZT2O_1_">
	<g>
		<path fill-rule="evenodd" clip-rule="evenodd" fill="#FFFFFF" d="M302.502,153.172c0,7.813,0,15.627,0,23.44
			c-10.349,63.263-42.269,104.956-101.165,119.671c-8.998-17.324,2.276-61.49-11.103-70.322
			c53.542,2.809,80.655-67.278,48.115-106.099c4.622-10.87,1.918-26.78-1.234-37.012c-17.586,0.097-27.633,7.734-38.245,14.805
			c-19.705-6.46-50.617-6.46-70.322,0c-10.257-7.016-20.685-13.859-37.012-14.805c-5.218,7.607-7.033,25.825-2.467,35.778
			c-32.318,41.785-4.956,111.2,49.349,107.333c-5.494,4.377-7.605,12.135-9.87,19.74c-36.933,15.508-35.941-31.399-66.621-25.908
			c1.753,8.344,10.611,8.938,16.038,17.271c6.182,9.493,6.226,19.829,16.039,24.675c8.985,4.437,20.927,3.597,35.778,2.468
			c-0.937,10.988,2.682,26.534-3.701,32.076c-58.865-14.747-90.863-56.361-101.165-119.671c0-7.813,0-15.627,0-23.44
			C34.971,76.017,93.964,19.729,176.663,26.099C244.587,31.332,295.052,86.526,302.502,153.172z"/>
	</g>
</g>
</svg>