<svg version="1.1" id="Capa_1" xmlns="http://www.w3.org/2000/svg" xmlns:xlink="http://www.w3.org/1999/xlink" x="0px" y="0px"
	 width="156px" height="156.333px" viewBox="0 0 156 156.333" enable-background="new 0 0 156 156.333" xml:space="preserve">
<g id="IxvzBk_1_">
	<g>
		<path fill-rule="evenodd" clip-rule="evenodd" fill="#FFFFFF" d="M53.335,5.232c9.448-0.45,21.747-0.318,31.836-0.318
			c10.805,0,21.329-0.346,30.244,0.955c19.054,2.78,29.172,13.947,33.109,29.289c4.149,16.167,2.229,39.857,2.229,60.488
			c0,21.766-3.387,36.659-16.236,46.162c-12.568,9.295-34.522,8.277-54.439,8.277c-19.682,0-42.651,1.174-55.713-6.686
			c-13.005-7.825-18.037-22.031-18.783-43.615c-0.331-9.562,0-21.269,0-31.199c0-17.335-0.513-30.159,4.775-41.387
			C17.608,11.802,30.473,6.321,53.335,5.232z M22.772,31.656C16.667,43.25,18.634,61.495,18.634,77.5
			c0,15.868-1.611,34.923,4.139,45.844c8.617,16.365,34.794,13.689,59.852,13.689c15.403,0,33.102,0.7,42.023-4.457
			c14.535-8.402,13.053-27.329,13.053-51.256c0-15.173,1.456-32.335-1.91-43.934c-5.251-18.093-22.034-19.42-43.934-19.42
			c-11.994,0-25.684-0.148-36.611,0.318C40.197,18.927,28.63,20.531,22.772,31.656z"/>
		<path fill-rule="evenodd" clip-rule="evenodd" fill="#FFFFFF" d="M114.778,30.383c6.812-1.504,12.23,3.177,10.824,10.506
			c-2.208,11.516-21.834,6.331-16.873-5.73C109.34,33.674,111.349,31.14,114.778,30.383z"/>
		<path fill-rule="evenodd" clip-rule="evenodd" fill="#FFFFFF" d="M74.028,40.57c17.25-1.746,29.31,7.33,35.02,15.6
			c12.64,18.309,4.521,42.496-9.551,52.211c-23.749,16.396-56.365,0.024-58.578-27.061c-0.938-11.483,3.556-21.487,7.004-26.105
			C53.118,48.257,61.779,41.81,74.028,40.57z M53.972,78.773c1.055,20.935,27.554,29.75,41.387,15.918
			c15.103-15.103,3.52-43.747-19.738-41.068C62.989,55.078,53.288,65.215,53.972,78.773z"/>
	</g>
</g>
</svg>
