<?xml version="1.0" encoding="utf-8"?>
<!-- Generator: Adobe Illustrator 15.1.0, SVG Export Plug-In . SVG Version: 6.00 Build 0)  -->
<!DOCTYPE svg PUBLIC "-//W3C//DTD SVG 1.1//EN" "http://www.w3.org/Graphics/SVG/1.1/DTD/svg11.dtd">
<svg version="1.1" id="Capa_1" xmlns="http://www.w3.org/2000/svg" xmlns:xlink="http://www.w3.org/1999/xlink" x="0px" y="0px"
	 width="183px" height="141px" viewBox="324.445 116.14 183 141" enable-background="new 324.445 116.14 183 141"
	 xml:space="preserve">
<g>
	<path fill="#FFFFFF" d="M465.486,125.989H364.42c-16.767,0-30.348,13.58-30.348,30.339v60.641
		c0,16.744,13.581,30.323,30.348,30.323h101.066c16.752,0,30.332-13.579,30.332-30.323v-60.641
		C495.818,139.569,482.238,125.989,465.486,125.989 M485.699,216.967c0,11.152-9.068,20.205-20.213,20.205H364.42
		c-11.175,0-20.229-9.053-20.229-20.205v-60.641c0-11.145,9.055-20.235,20.229-20.235h101.066c11.145,0,20.213,9.092,20.213,20.235
		V216.967z"/>
	<path fill="#FFFFFF" d="M469.049,213.406l-29.688-29.711l29.297-23.422c2.15-1.755,2.52-4.939,0.771-7.102
		c-1.738-2.167-4.916-2.542-7.107-0.796l-47.38,37.892l-47.366-37.892c-2.206-1.746-5.369-1.371-7.116,0.796
		c-1.746,2.16-1.399,5.347,0.806,7.102l29.268,23.422l-29.712,29.711c-1.977,1.961-1.977,5.163,0,7.13
		c0.979,0.996,2.298,1.479,3.601,1.479c1.271,0,2.565-0.482,3.546-1.479l30.333-30.323c0.053-0.046,0.092-0.138,0.138-0.19
		l13.373,10.692c0.896,0.72,2.021,1.096,3.133,1.096s2.214-0.376,3.171-1.096l13.342-10.692c0.047,0.054,0.062,0.146,0.107,0.19
		l30.361,30.323c0.959,0.996,2.275,1.479,3.562,1.479c1.295,0,2.582-0.482,3.562-1.479
		C471.017,218.569,471.017,215.366,469.049,213.406"/>
</g>
</svg>
