<svg version="1.1" id="Capa_1" xmlns="http://www.w3.org/2000/svg" xmlns:xlink="http://www.w3.org/1999/xlink" x="0px" y="0px"
	 width="585.836px" height="159.806px" viewBox="0 0 585.836 159.806" enable-background="new 0 0 585.836 159.806"
	 xml:space="preserve">
<g>
	<path fill="#3F2D81" d="M83.401,37.901h13.634v40.5c0,10.793-4.301,18.586-17.774,18.586c-12.255,0-17.287-5.843-17.287-15.989
		v-3.57h12.66v2.516c0,3.895,0.082,7.953,4.464,7.953c3.896,0,4.303-4.058,4.303-9.495V37.901z"/>
	<path fill="#3F2D81" d="M124.546,96.986c-17.936,0-20.371-11.687-20.371-30.111c0-18.423,2.436-30.111,20.371-30.111
		c19.316,0,20.371,14.041,20.371,30.111S143.862,96.986,124.546,96.986z M124.464,87.896c5.521,0,6.331-5.113,6.331-21.021
		c0-15.907-0.81-21.02-6.331-21.02c-5.355,0-6.167,5.113-6.167,21.02C118.297,82.783,119.109,87.896,124.464,87.896z"/>
	<path fill="#3F2D81" d="M163.337,78.157v2.028c0,4.382,1.218,7.71,5.925,7.71c4.789,0,6.169-3.571,6.169-6.898
		c0-12.498-24.917-5.519-24.917-27.189c0-9.252,4.95-17.044,18.992-17.044c13.635,0,18.504,6.9,18.504,15.828v1.379h-13.149
		c0-2.76-0.324-4.789-1.136-6.088c-0.812-1.379-2.11-2.028-4.139-2.028c-3.408,0-5.438,2.028-5.438,6.25
		c0,12.092,24.917,6.006,24.917,26.458c0,13.147-7.304,18.423-19.804,18.423c-9.901,0-19.072-3.003-19.072-15.096v-3.733H163.337z"
		/>
	<path fill="#3F2D81" d="M195.636,37.901h33.518v11.037h-19.883v11.606h18.667v11.038h-18.667v13.23h20.777v11.039h-34.412V37.901z"
		/>
	<path fill="#3F2D81" d="M236.215,37.901h21.102c14.365,0,17.125,10.388,17.125,17.612c0,10.389-4.952,17.693-18.586,17.693h-6.006
		v22.645h-13.635V37.901z M249.85,63.142h3.733c5.438,0,6.737-3.409,6.737-7.304c0-4.464-1.461-7.873-6.981-7.873h-3.489V63.142z"/>
</g>
<g>
	<g>
		<path fill="#3F2D81" d="M302.051,78.157v2.028c0,4.382,1.216,7.71,5.921,7.71c4.79,0,6.169-3.571,6.169-6.898
			c0-12.498-24.915-5.519-24.915-27.189c0-9.252,4.95-17.044,18.993-17.044c13.633,0,18.501,6.9,18.501,15.828v1.379h-13.147
			c0-2.76-0.326-4.789-1.135-6.088c-0.815-1.379-2.113-2.028-4.141-2.028c-3.408,0-5.439,2.028-5.439,6.25
			c0,12.092,24.918,6.006,24.918,26.458c0,13.147-7.304,18.423-19.805,18.423c-9.9,0-19.07-3.003-19.07-15.096v-3.733H302.051z"/>
		<path fill="#3F2D81" d="M371.765,76.696c0,11.362-3.248,20.29-19.075,20.29s-19.072-8.928-19.072-20.29V37.901h13.633v42.772
			c0,4.545,1.787,7.223,5.438,7.223c3.652,0,5.439-2.677,5.439-7.223V37.901h13.636V76.696z"/>
		<path fill="#3F2D81" d="M379.473,37.901h21.182c9.9,0,16.474,4.626,16.474,14.285c0,6.737-3.568,12.011-9.088,13.066v0.163
			c4.301,0.649,10.711,2.516,10.711,14.365c0,6.818-3,16.072-19.153,16.072h-20.125V37.901z M393.106,61.032h3.733
			c4.708,0,6.655-2.679,6.655-6.818c0-3.003-1.624-6.249-6.574-6.249h-3.815V61.032z M393.106,85.786h4.138
			c5.52,0,7.388-3.489,7.388-7.548c0-5.68-2.921-8.116-7.144-8.116h-4.382V85.786z"/>
		<path fill="#3F2D81" d="M426.297,37.901h13.637v57.95h-13.637V37.901z"/>
		<path fill="#3F2D81" d="M448.613,37.901h13.637v46.912h19.721v11.039h-33.357V37.901z"/>
		<path fill="#3F2D81" d="M497.473,78.157v2.028c0,4.382,1.219,7.71,5.924,7.71c4.789,0,6.17-3.571,6.17-6.898
			c0-12.498-24.916-5.519-24.916-27.189c0-9.252,4.949-17.044,18.99-17.044c13.637,0,18.506,6.9,18.506,15.828v1.379h-13.15
			c0-2.76-0.324-4.789-1.135-6.088c-0.812-1.379-2.111-2.028-4.143-2.028c-3.404,0-5.436,2.028-5.436,6.25
			c0,12.092,24.916,6.006,24.916,26.458c0,13.147-7.305,18.423-19.803,18.423c-9.902,0-19.072-3.003-19.072-15.096v-3.733H497.473z"
			/>
	</g>
</g>
<g>
	<path fill="#FFFFFF" d="M78.274,105.238h7.936c8.757,0,9.853,5.708,9.853,13.956c0,8.252-1.096,13.957-9.853,13.957h-7.936V105.238
		z M82.731,129.788h3.675c3.674,0,5.199-2.421,5.199-10.595c0-7.859-1.328-10.593-5.199-10.593h-3.675V129.788z"/>
	<path fill="#FFFFFF" d="M99.999,105.238h15.091v3.754h-10.633v7.739h10.008v3.754h-10.008v8.913h10.947v3.752H99.999V105.238z"/>
	<path fill="#FFFFFF" d="M116.253,105.238h4.729l4.731,22.284h0.079l5.004-22.284h4.729l-7.037,27.913h-5.668L116.253,105.238z"/>
	<path fill="#FFFFFF" d="M137.585,105.238h15.091v3.754h-10.633v7.739h10.008v3.754h-10.008v8.913h10.947v3.752h-15.405V105.238z"/>
	<path fill="#FFFFFF" d="M155.873,105.238h4.456v24.161h10.79v3.752h-15.246V105.238z"/>
	<path fill="#FFFFFF" d="M173.064,119.193c0-9.969,2.814-14.505,9.227-14.505s9.227,4.536,9.227,14.505
		c0,9.973-2.814,14.506-9.227,14.506S173.064,129.166,173.064,119.193z M187.061,119.079c0-9.387-2.111-11.028-4.771-11.028
		c-2.659,0-4.77,1.642-4.77,11.028c0,9.616,2.111,11.258,4.77,11.258C184.95,130.337,187.061,128.695,187.061,119.079z"/>
	<path fill="#FFFFFF" d="M195.452,105.238h8.835c5.356,0,7.703,3.362,7.703,8.131c0,5.004-2.933,8.251-8.172,8.251h-3.909v11.53
		h-4.458V105.238z M199.909,118.258h3.166c2.384,0,4.458-1.292,4.458-4.811c0-3.012-1.213-4.847-4.77-4.847h-2.854V118.258z"/>
	<path fill="#FFFFFF" d="M214.988,105.238h15.091v3.754h-10.633v7.739h10.008v3.754h-10.008v8.913h10.947v3.752h-15.405V105.238z"/>
	<path fill="#FFFFFF" d="M233.782,105.238h9.853c3.908,0,7.076,1.956,7.076,7.195c0,3.595-1.603,6.369-4.653,6.839v0.078
		c2.775,0.271,4.223,1.799,4.379,5.708c0.038,1.799,0.077,3.986,0.155,5.671c0.079,1.367,0.743,2.031,1.33,2.421h-5.044
		c-0.43-0.508-0.625-1.368-0.742-2.463c-0.157-1.679-0.118-3.242-0.196-5.276c-0.077-3.048-1.016-4.379-4.065-4.379h-3.635v12.118
		h-4.458V105.238z M241.797,117.67c2.854,0,4.458-1.721,4.458-4.537c0-2.97-1.29-4.533-4.222-4.533h-3.792v9.07H241.797z"/>
	<path fill="#FFFFFF" d="M278.296,124.705c0.664-1.093,1.094-2.773,1.094-4.262V119.9h3.518v0.35c0,1.485-0.468,4.887-2.384,7.585
		l3.792,5.315h-4.731l-1.681-2.385c-1.798,1.642-3.87,2.934-7.037,2.934c-6.45,0-8.209-4.769-8.209-7.702
		c0-3.049,1.524-5.512,3.91-7.311l1.758-1.328l-1.055-1.563c-0.978-1.527-1.799-3.091-1.799-4.576c0-3.99,2.932-5.982,6.646-5.982
		c2.072,0,6.139,1.017,6.139,5.668c0,2.581-1.408,4.379-3.402,5.865l-1.447,1.056L278.296,124.705z M269.46,120.721
		c-1.603,1.289-2.581,2.892-2.581,4.962c0,2.505,2.151,4.458,4.731,4.458c1.875,0,3.284-1.017,4.338-2.151l-5.668-7.975
		L269.46,120.721z M272.469,114.347c0.978-0.938,2.034-2.07,2.034-3.598c0-1.642-1.017-2.62-2.659-2.62
		c-1.133,0-2.62,0.588-2.62,2.426c0,1.407,0.86,2.813,1.642,3.87l0.626,0.821L272.469,114.347z"/>
	<path fill="#FFFFFF" d="M295.946,105.238h8.837c5.354,0,7.702,3.362,7.702,8.131c0,5.004-2.934,8.251-8.173,8.251h-3.909v11.53
		h-4.458V105.238z M300.404,118.258h3.167c2.384,0,4.455-1.292,4.455-4.811c0-3.012-1.21-4.847-4.769-4.847h-2.853V118.258z"/>
	<path fill="#FFFFFF" d="M315.483,105.238h9.854c3.905,0,7.074,1.956,7.074,7.195c0,3.595-1.603,6.369-4.654,6.839v0.078
		c2.777,0.271,4.226,1.799,4.382,5.708c0.036,1.799,0.076,3.986,0.154,5.671c0.078,1.367,0.742,2.031,1.331,2.421h-5.046
		c-0.429-0.508-0.622-1.368-0.742-2.463c-0.157-1.679-0.115-3.242-0.193-5.276c-0.078-3.048-1.017-4.379-4.068-4.379h-3.634v12.118
		h-4.458V105.238z M323.496,117.67c2.855,0,4.461-1.721,4.461-4.537c0-2.97-1.292-4.533-4.226-4.533h-3.791v9.07H323.496z"/>
	<path fill="#FFFFFF" d="M335.801,119.193c0-9.969,2.816-14.505,9.227-14.505s9.227,4.536,9.227,14.505
		c0,9.973-2.816,14.506-9.227,14.506S335.801,129.166,335.801,119.193z M349.796,119.079c0-9.387-2.109-11.028-4.769-11.028
		s-4.769,1.642-4.769,11.028c0,9.616,2.109,11.258,4.769,11.258S349.796,128.695,349.796,119.079z"/>
	<path fill="#FFFFFF" d="M371.992,129.908h-0.079c-1.213,2.578-2.816,3.791-6.1,3.791c-6.1,0-8.288-4.533-8.288-14.506
		c0-9.969,2.816-14.505,9.266-14.505c6.999,0,8.17,5.514,8.17,8.056v0.51h-4.223v-0.667c0-2.073-0.86-4.536-3.909-4.536
		c-3.169,0-4.847,2.113-4.847,11.028c0,8.988,1.485,11.258,4.497,11.258c3.398,0.039,4.648-2.424,4.648-8.523h-4.69v-3.362h8.916
		v14.699h-3.362V129.908z"/>
	<path fill="#FFFFFF" d="M379.169,105.238h9.854c3.908,0,7.078,1.956,7.078,7.195c0,3.595-1.606,6.369-4.654,6.839v0.078
		c2.777,0.271,4.223,1.799,4.379,5.708c0.04,1.799,0.076,3.986,0.154,5.671c0.078,1.367,0.742,2.031,1.331,2.421h-5.043
		c-0.429-0.508-0.625-1.368-0.743-2.463c-0.157-1.679-0.118-3.242-0.196-5.276c-0.075-3.048-1.017-4.379-4.065-4.379h-3.634v12.118
		h-4.461V105.238z M387.186,117.67c2.855,0,4.458-1.721,4.458-4.537c0-2.97-1.289-4.533-4.222-4.533h-3.791v9.07H387.186z"/>
	<path fill="#FFFFFF" d="M405.434,105.238h5.705l7.352,27.913h-4.654l-1.721-6.84h-8.17l-1.796,6.84h-4.654L405.434,105.238z
		 M411.374,122.752l-3.206-13.76h-0.078l-3.323,13.76H411.374z"/>
	<path fill="#FFFFFF" d="M420.434,105.238h6.96l4.926,20.68h0.078l4.847-20.68h6.804v27.913h-4.227v-23.222h-0.078l-5.625,23.222
		h-3.756l-5.631-23.222h-0.079v23.222h-4.219V105.238z"/>
	<path fill="#FFFFFF" d="M448.643,105.238h6.959l4.926,20.68h0.078l4.848-20.68h6.803v27.913h-4.223v-23.222h-0.078l-5.629,23.222
		h-3.754l-5.629-23.222h-0.079v23.222h-4.222V105.238z"/>
	<path fill="#FFFFFF" d="M476.854,105.238h15.09v3.754h-10.633v7.739h10.008v3.754h-10.008v8.913h10.947v3.752h-15.404V105.238z"/>
	<path fill="#FFFFFF" d="M495.646,105.238h9.852c3.908,0,7.074,1.956,7.074,7.195c0,3.595-1.6,6.369-4.65,6.839v0.078
		c2.773,0.271,4.223,1.799,4.379,5.708c0.037,1.799,0.078,3.986,0.158,5.671c0.078,1.367,0.742,2.031,1.328,2.421h-5.045
		c-0.432-0.508-0.625-1.368-0.742-2.463c-0.156-1.679-0.117-3.242-0.195-5.276c-0.078-3.048-1.014-4.379-4.066-4.379h-3.637v12.118
		h-4.455V105.238z M503.66,117.67c2.852,0,4.457-1.721,4.457-4.537c0-2.97-1.291-4.533-4.221-4.533h-3.795v9.07H503.66z"/>
</g>
<g>
	<path fill="#FFFFFF" d="M25.997,78.216c5.015-0.232,9.448-5.598,9.448-11.897V44.973c0-9.913,6.297-15.28,12.947-15.28h8.397v7.232
		h-3.85c-4.548,0-5.598,3.267-5.598,8.047v21.345c0,10.965-7.814,14.93-10.731,15.63v0.235c2.917,0.7,10.731,4.665,10.731,15.629
		v21.345c0,4.781,1.05,8.049,5.598,8.049h3.85v7.231h-8.397c-6.65,0-12.947-5.365-12.947-15.28V97.812
		c0-6.299-4.433-11.664-9.448-11.896V78.216z"/>
</g>
<g>
	<path fill="#FFFFFF" d="M565.449,85.979c-5.02,0.236-9.457,5.605-9.457,11.906v21.362c0,9.923-6.3,15.292-12.958,15.292h-8.401
		v-7.238h3.852c4.55,0,5.602-3.267,5.602-8.053V97.885c0-10.972,7.822-14.939,10.74-15.641v-0.232
		c-2.918-0.7-10.74-4.67-10.74-15.641V45.008c0-4.786-1.052-8.053-5.602-8.053h-3.852v-7.237h8.401
		c6.658,0,12.958,5.369,12.958,15.29v21.363c0,6.302,4.438,11.671,9.457,11.905V85.979z"/>
</g>
</svg>
