<?xml version="1.0" encoding="utf-8"?>
<!-- Generator: Adobe Illustrator 15.1.0, SVG Export Plug-In . SVG Version: 6.00 Build 0)  -->
<!DOCTYPE svg PUBLIC "-//W3C//DTD SVG 1.1//EN" "http://www.w3.org/Graphics/SVG/1.1/DTD/svg11.dtd">
<svg version="1.1" id="Capa_1" xmlns="http://www.w3.org/2000/svg" xmlns:xlink="http://www.w3.org/1999/xlink" x="0px" y="0px"
	 width="352px" height="132px" viewBox="10 13 352 132" enable-background="new 10 13 352 132" xml:space="preserve">
<g>
	<g>
		<path fill="#3F2D81" d="M23.668,127.9h3.103l0.638-4.669h-2.812v-2.366h3.133l0.896-6.396h2.655l-0.896,6.396h3.391l0.896-6.396
			h2.653l-0.895,6.396h2.78v2.366h-3.103l-0.638,4.669h2.812v2.363h-3.133l-0.896,6.4h-2.654l0.896-6.4h-3.391l-0.896,6.4h-2.652
			l0.895-6.4h-2.781L23.668,127.9L23.668,127.9z M32.814,127.9l0.64-4.669h-3.391l-0.641,4.669H32.814z"/>
		<path fill="#3F2D81" d="M41.005,113.827h6.492c7.164,0,8.06,4.673,8.06,11.417c0,6.749-0.896,11.42-8.06,11.42h-6.492V113.827z
			 M44.651,133.912h3.006c3.007,0,4.253-1.982,4.253-8.668c0-6.429-1.087-8.667-4.253-8.667h-3.006V133.912z"/>
		<path fill="#3F2D81" d="M58.792,113.827h12.347v3.071h-8.699v6.333h8.187v3.069h-8.187v7.289h8.955v3.074H58.792V113.827z"/>
		<path fill="#3F2D81" d="M72.1,113.827h3.871l3.871,18.229h0.064l4.092-18.229h3.869l-5.755,22.837h-4.639L72.1,113.827z"/>
		<path fill="#3F2D81" d="M89.565,113.827h12.346v3.071h-8.698v6.333h8.188v3.069h-8.188v7.289h8.954v3.074H89.565V113.827z"/>
		<path fill="#3F2D81" d="M104.537,113.827h3.646v19.765h8.826v3.072h-12.473V113.827z"/>
		<path fill="#3F2D81" d="M118.614,125.244c0-8.152,2.303-11.863,7.548-11.863c5.244,0,7.546,3.711,7.546,11.863
			c0,8.157-2.302,11.867-7.546,11.867C120.916,137.111,118.614,133.401,118.614,125.244z M130.062,125.15
			c0-7.678-1.727-9.021-3.9-9.021c-2.176,0-3.902,1.344-3.902,9.021c0,7.867,1.728,9.209,3.902,9.209
			C128.336,134.359,130.062,133.018,130.062,125.15z"/>
		<path fill="#3F2D81" d="M136.944,113.827h7.228c4.381,0,6.302,2.75,6.302,6.653c0,4.093-2.398,6.747-6.685,6.747h-3.197v9.437
			h-3.646L136.944,113.827L136.944,113.827z M140.591,124.477h2.588c1.952,0,3.646-1.055,3.646-3.934c0-2.461-0.99-3.967-3.9-3.967
			h-2.334V124.477z"/>
		<path fill="#3F2D81" d="M152.938,113.827h12.346v3.071h-8.698v6.333h8.188v3.069h-8.188v7.289h8.955v3.074h-12.603V113.827z"/>
		<path fill="#3F2D81" d="M168.326,113.827h8.061c3.197,0,5.788,1.601,5.788,5.888c0,2.941-1.312,5.213-3.807,5.594v0.066
			c2.271,0.223,3.454,1.471,3.582,4.666c0.032,1.473,0.062,3.264,0.128,4.641c0.063,1.117,0.607,1.662,1.088,1.982h-4.127
			c-0.352-0.418-0.511-1.121-0.604-2.017c-0.129-1.374-0.099-2.654-0.161-4.317c-0.064-2.492-0.831-3.582-3.328-3.582h-2.974v9.916
			h-3.646V113.827z M174.882,124c2.334,0,3.646-1.406,3.646-3.713c0-2.429-1.057-3.71-3.455-3.71h-3.103V124H174.882z"/>
	</g>
	<g>
		<path fill="#3F2D81" d="M190.191,127.9h3.103l0.64-4.669h-2.814v-2.366h3.133l0.896-6.396h2.654l-0.895,6.396h3.389l0.896-6.396
			h2.652l-0.895,6.396h2.781v2.366h-3.102l-0.641,4.669h2.812v2.363h-3.133l-0.896,6.4h-2.654l0.896-6.4h-3.392l-0.896,6.4h-2.653
			l0.896-6.4h-2.781V127.9H190.191z M199.336,127.9l0.641-4.669h-3.389l-0.643,4.669H199.336z"/>
		<path fill="#3F2D81" d="M209.607,129.787v1.118c0,1.89,0.384,3.424,2.432,3.454c2.43,0,2.43-2.236,2.43-4.542v-15.99h3.646v16.535
			c0,5.021-2.494,6.782-6.143,6.749c-4.666-0.032-5.756-2.846-5.819-5.854v-1.471H209.607z"/>
		<path fill="#3F2D81" d="M226.051,113.827h4.67l6.012,22.837h-3.807l-1.406-5.599h-6.687l-1.47,5.599h-3.807L226.051,113.827z
			 M230.911,128.155l-2.625-11.257h-0.062l-2.719,11.257H230.911z"/>
		<path fill="#3F2D81" d="M235.299,113.827h3.867l3.869,18.229h0.064l4.095-18.229h3.868l-5.758,22.837h-4.635L235.299,113.827z"/>
		<path fill="#3F2D81" d="M255.898,113.827h4.669l6.012,22.837h-3.806l-1.407-5.599h-6.687l-1.467,5.599h-3.809L255.898,113.827z
			 M260.758,128.155l-2.623-11.257h-0.063l-2.718,11.257H260.758z"/>
		<path fill="#3F2D81" d="M270.995,129.594v0.578c0,2.779,1.218,4.188,3.742,4.188c2.304,0,3.454-1.631,3.454-3.326
			c0-2.398-1.217-3.454-3.262-4.062l-2.494-0.861c-3.325-1.28-4.768-3.006-4.768-6.27c0-4.156,2.816-6.461,7.102-6.461
			c5.854,0,6.459,3.646,6.459,6.014v0.513h-3.644v-0.479c0-2.08-0.93-3.295-3.2-3.295c-1.566,0-3.068,0.863-3.068,3.295
			c0,1.949,0.992,2.939,3.421,3.871l2.462,0.895c3.232,1.15,4.641,2.911,4.641,6.044c0,4.86-2.945,6.877-7.55,6.877
			c-5.661,0-6.938-3.772-6.938-6.974v-0.545H270.995L270.995,129.594z"/>
		<path fill="#3F2D81" d="M298.824,128.475v0.48c0,4.124-1.661,8.155-7.034,8.155c-5.757,0-7.548-3.71-7.548-11.867
			c0-8.151,1.791-11.864,7.579-11.864c6.491,0,6.877,4.799,6.877,7.164v0.418h-3.647v-0.386c0-2.11-0.638-4.541-3.261-4.446
			c-2.688,0-3.901,1.666-3.901,9.021c0,7.354,1.215,9.209,3.901,9.209c3.037,0,3.39-3.391,3.39-5.501v-0.384H298.824z"/>
		<path fill="#3F2D81" d="M301.387,113.827h8.062c3.196,0,5.789,1.601,5.789,5.888c0,2.941-1.312,5.213-3.806,5.594v0.066
			c2.271,0.223,3.453,1.471,3.582,4.666c0.03,1.473,0.062,3.264,0.125,4.641c0.065,1.117,0.608,1.662,1.088,1.982h-4.125
			c-0.352-0.418-0.512-1.121-0.606-2.017c-0.128-1.374-0.099-2.654-0.161-4.317c-0.064-2.492-0.83-3.582-3.324-3.582h-2.976v9.916
			h-3.646v-22.837H301.387z M307.943,124c2.336,0,3.646-1.406,3.646-3.713c0-2.429-1.056-3.71-3.453-3.71h-3.104V124H307.943z"/>
		<path fill="#3F2D81" d="M318.407,113.827h3.646v22.837h-3.646V113.827z"/>
		<path fill="#3F2D81" d="M325.667,113.827h7.228c4.382,0,6.303,2.75,6.303,6.653c0,4.093-2.398,6.747-6.686,6.747h-3.197v9.437
			h-3.646L325.667,113.827L325.667,113.827z M329.314,124.477h2.591c1.95,0,3.646-1.055,3.646-3.934c0-2.461-0.99-3.967-3.9-3.967
			h-2.334v7.9H329.314z"/>
		<path fill="#3F2D81" d="M345.405,116.898h-5.438v-3.071h14.426v3.071h-5.342v19.766h-3.646L345.405,116.898L345.405,116.898z"/>
	</g>
	<g>
		<path fill="#FFFFFF" d="M26.061,85.366h-8.453V72.401h10.305l2.083-14.817h-8.451V44.62h10.302l2.663-19.796h12.85L44.581,44.62
			h8.333l2.779-19.796h12.734L65.65,44.62H74.1v12.964H63.798l-2.083,14.817h8.449v12.965H59.861l-2.663,19.796H44.467l2.66-19.796
			h-8.335l-2.66,19.796H23.397L26.061,85.366z M51.065,57.584H42.73l-2.085,14.817h8.334L51.065,57.584z"/>
		<path fill="#FFFFFF" d="M81.966,22.509h22.341l15.975,53.711h0.231V22.509h18.06v82.655h-21.995L99.56,48.208h-0.231v56.956
			H81.966V22.509z"/>
		<path fill="#FFFFFF" d="M150.605,22.509h47.807v15.744h-28.359v16.552h26.623V70.55h-26.623v18.868h29.635v15.746h-49.081
			L150.605,22.509L150.605,22.509z"/>
		<path fill="#FFFFFF" d="M203.153,22.509h19.448l7.176,58.807h0.232l8.565-58.807h18.056l9.262,58.807h0.231l6.946-58.807h18.754
			l-14.354,82.654h-21.533l-8.449-58.692h-0.232l-7.986,58.692H217.74L203.153,22.509z"/>
		<path fill="#FFFFFF" d="M314.621,79.926v2.894c0,6.251,1.734,10.998,8.45,10.998c6.83,0,8.798-5.093,8.798-9.841
			c0-17.827-35.538-7.871-35.538-38.778c0-13.197,7.06-24.311,27.089-24.311c19.445,0,26.393,9.841,26.393,22.573v1.969h-18.754
			c0-3.936-0.463-6.831-1.619-8.682c-1.159-1.969-3.012-2.895-5.903-2.895c-4.862,0-7.756,2.895-7.756,8.912
			c0,17.249,35.539,8.565,35.539,37.738c0,18.752-10.421,26.276-28.247,26.276c-14.122,0-27.204-4.28-27.204-21.528v-5.326H314.621z
			"/>
	</g>
</g>
</svg>
