<svg version="1.1" id="Capa_1" xmlns="http://www.w3.org/2000/svg" xmlns:xlink="http://www.w3.org/1999/xlink" x="0px" y="0px"
width="202px" height="161px" viewBox="0 0 202 161" enable-background="new 0 0 202 161" xml:space="preserve">
<g>
<polygon fill="#3F2D81" points="58.48,151.366 15.961,80.5 58.48,9.634 143.522,9.634 186.039,80.5 143.522,151.366 "/>
<g>
<g>
<path fill="#FFFFFF" d="M78.79,111.761c0,0.989-0.366,1.833-1.096,2.535c-0.729,0.701-1.604,1.054-2.632,1.054
c-1.023,0-1.9-0.353-2.633-1.054c-0.729-0.702-1.094-1.546-1.094-2.535V47.213c0-0.988,0.365-1.832,1.094-2.534
c0.732-0.7,1.608-1.054,2.633-1.054c1.119,0,2.083,0.437,2.889,1.3l45.561,56.394V47.213c0-0.988,0.363-1.832,1.095-2.534
c0.729-0.7,1.604-1.054,2.632-1.054c1.026,0,1.902,0.354,2.633,1.054c0.728,0.702,1.096,1.546,1.096,2.534v64.548
c0,0.989-0.368,1.833-1.096,2.535c-0.729,0.701-1.605,1.054-2.633,1.054c-1.088,0-2.019-0.39-2.794-1.167L78.79,57.701V111.761
L78.79,111.761z"/>
</g>
<ellipse fill="#3F2D81" stroke="#FFFFFF" stroke-width="5.1928" stroke-miterlimit="10" cx="127.02" cy="52.388" rx="8.488" ry="8.168"/>
<ellipse fill="#3F2D81" stroke="#FFFFFF" stroke-width="5.1928" stroke-miterlimit="10" cx="101.15" cy="79.693" rx="8.491" ry="8.169"/>
<ellipse fill="#3F2D81" stroke="#FFFFFF" stroke-width="5.1928" stroke-miterlimit="10" cx="74.979" cy="106.729" rx="8.489" ry="8.168"/>
</g>
</g>
</svg>