<?xml version="1.0" encoding="utf-8"?>
<!-- Generator: Adobe Illustrator 15.1.0, SVG Export Plug-In . SVG Version: 6.00 Build 0)  -->
<!DOCTYPE svg PUBLIC "-//W3C//DTD SVG 1.1//EN" "http://www.w3.org/Graphics/SVG/1.1/DTD/svg11.dtd">
<svg version="1.1" id="Capa_1" xmlns="http://www.w3.org/2000/svg" xmlns:xlink="http://www.w3.org/1999/xlink" x="0px" y="0px"
	 width="773.961px" height="317.982px" viewBox="0 0 773.961 317.982" enable-background="new 0 0 773.961 317.982"
	 xml:space="preserve">
<path fill="#FFFFFF" d="M763.462,265.635c-125.264,0-250.53,0-375.791,0c0,14.03,0,28.061,0,42.09c-55.617,0-111.234,0-166.853,0
	c0-13.779,0-27.56,0-41.338c-68.143-1.755-139.544-0.25-208.938-0.753c0-83.424,0-166.853,0-250.276c250.521,0,501.066,0,751.582,0
	C763.462,98.783,763.462,182.211,763.462,265.635z M53.217,58.948c0,55.116,0,110.234,0,165.351c28.059,0,56.118,0,84.177,0
	c0-41.588,0-83.176,0-124.764c13.779,0,27.56,0,41.337,0c0,41.588,0,83.176,0,124.764c14.03,0,28.061,0,42.089,0
	c0-55.866,0-111.736,0-167.604c-55.615,0-111.232,0-166.852,0C53.093,56.821,53.153,57.882,53.217,58.948z M262.157,58.948
	c0,69.146,0,138.294,0,207.438c28.059,0,56.116,0,84.177,0c0.5-13.779-1-29.562,0.751-42.089c27.558,0,55.114,0,82.674,0
	c0-55.866,0-111.736,0-167.604c-55.617,0-111.234,0-166.852,0C262.033,56.821,262.093,57.882,262.157,58.948z M471.097,58.948
	c0,55.116,0,110.234,0,165.351c28.06,0,56.118,0,84.177,0c0-41.588,0-83.176,0-124.764c13.528,0,27.058,0,40.586,0
	c0,41.588,0,83.176,0,124.764c14.279,0,28.562,0,42.84,0c0.501-41.338-1.002-84.68,0.752-124.764c13.028,0.5,28.059-1,39.834,0.752
	c0,41.086,0,82.174,0,123.26c12.795,1.736,28.797,0.265,42.842,0.752c0-55.866,0-111.736,0-167.604c-83.428,0-166.854,0-250.277,0
	C470.973,56.821,471.031,57.882,471.097,58.948z M387.671,99.535c0,27.557,0,55.117,0,82.676c-13.779,0-27.56,0-41.337,0
	c0.5-27.31-1.002-56.621,0.751-82.676C360.614,99.535,374.143,99.535,387.671,99.535z"/>
</svg>
