<?xml version="1.0" encoding="utf-8"?>
<!-- Generator: Adobe Illustrator 15.1.0, SVG Export Plug-In . SVG Version: 6.00 Build 0)  -->
<!DOCTYPE svg PUBLIC "-//W3C//DTD SVG 1.1//EN" "http://www.w3.org/Graphics/SVG/1.1/DTD/svg11.dtd">
<svg version="1.1" id="Capa_1" xmlns="http://www.w3.org/2000/svg" xmlns:xlink="http://www.w3.org/1999/xlink" x="0px" y="0px"
	 width="157.039px" height="119.905px" viewBox="22.808 20.157 157.039 119.905"
	 enable-background="new 22.808 20.157 157.039 119.905" xml:space="preserve">
<g>
	<path fill="#FFFFFF" d="M31.814,28.136h36.508c16.194,0,26.077,8.853,26.077,26.273c0,13.564-5.216,22.702-16.332,25.13v0.286
		c13.45,1.856,15.509,9.566,15.783,31.126c0.138,10.709,0.687,16.277,4.392,18.276v0.856H76.83
		c-1.922-2.855-2.333-6.711-2.471-10.709l-0.549-19.562c-0.274-7.995-3.705-12.85-11.665-12.85H51.576v43.12H31.814V28.136z
		 M51.576,72.686h8.235c9.47,0,14.821-4.284,14.821-15.277c0-9.424-4.803-14.136-13.724-14.136h-9.333V72.686z"/>
	<path fill="#FFFFFF" d="M128.02,28.136v71.105c0,10.139,2.334,17.705,11.528,17.705c9.196,0,11.529-7.567,11.529-17.705V28.136
		h19.764v71.105c0,25.987-15.233,32.841-31.293,32.841c-16.057,0-31.292-5.568-31.292-32.841V28.136H128.02z"/>
</g>
</svg>
