<?xml version="1.0" encoding="utf-8"?>
<!-- Generator: Adobe Illustrator 15.1.0, SVG Export Plug-In . SVG Version: 6.00 Build 0)  -->
<!DOCTYPE svg PUBLIC "-//W3C//DTD SVG 1.1//EN" "http://www.w3.org/Graphics/SVG/1.1/DTD/svg11.dtd">
<svg version="1.1" id="Capa_1" xmlns="http://www.w3.org/2000/svg" xmlns:xlink="http://www.w3.org/1999/xlink" x="0px" y="0px"
	 width="202px" height="161px" viewBox="0 0 202 161" enable-background="new 0 0 202 161" xml:space="preserve">
<g>
	<polygon fill="#3F2D81" points="58.48,151.366 15.96,80.501 58.48,9.634 143.521,9.634 186.039,80.501 143.521,151.366 	"/>
	<g>
		<polygon fill="#3F2D81" points="62.258,103.731 88.166,80.079 63.429,57.926 81.862,57.926 96.066,70.555 106.629,80.038 
			96.167,89.649 80.628,103.731 		"/>
		<path fill="#FFFFFF" d="M81.096,59.808l13.631,12.116l9.055,8.132l-8.945,8.215l-14.983,13.58H67.159l20.842-19.028l3.019-2.758
			l-3.046-2.726L68.397,59.808H81.096 M82.625,56.044H58.458l26.854,24.048l-27.953,25.52h24.048L97.517,91.01l11.96-10.988
			L97.394,69.173L82.625,56.044L82.625,56.044z"/>
	</g>
	<g>
		<polygon fill="#3F2D81" points="121.761,103.747 106.473,89.663 96.164,80.038 106.586,70.526 120.549,57.911 138.688,57.911 
			114.334,80.08 139.837,103.747 		"/>
		<path fill="#FFFFFF" d="M133.815,59.776l-19.34,17.604l-2.95,2.685l2.923,2.714l20.587,19.101H122.54L107.832,88.33l-8.869-8.277
			l8.942-8.162l13.41-12.117L133.815,59.776 M143.56,56.044h-23.778L105.25,69.172L93.361,80.023l11.771,10.987l15.851,14.603
			h23.657l-27.503-25.521L143.56,56.044L143.56,56.044z"/>
	</g>
	<polygon fill="#3F2D81" points="89.702,78.097 75.13,64.543 75.13,46.882 100.91,70.689 128.427,45.768 128.427,63.363 
		112.155,78.208 100.861,88.374 	"/>
	<path fill="#FFFFFF" d="M126.368,50.354v12.157l-15.61,14.242l-9.879,8.896l-9.738-8.966L77.188,63.703V51.531l20.884,19.284
		l2.824,2.607l2.85-2.581L126.368,50.354 M130.485,41.182l-29.562,26.772L73.071,42.235v23.148l15.207,14.146l12.569,11.575
		l12.727-11.457l16.913-15.432L130.485,41.182L130.485,41.182z"/>
	<polygon fill="#3F2D81" points="100.294,89.21 74.531,113.39 74.531,95.438 89.118,81.647 100.248,71.228 111.525,81.55 
		127.795,96.639 127.795,114.522 	"/>
	<path fill="#FFFFFF" d="M100.264,74l9.811,8.979l15.644,14.507v12.361L103.18,89.102l-2.898-2.67l-2.872,2.695L76.607,108.65
		V96.275l13.951-13.19L100.264,74 M100.23,68.457L87.662,80.222L72.455,94.6v23.528l27.854-26.141l29.561,27.211V95.789
		l-16.914-15.687L100.23,68.457L100.23,68.457z"/>
</g>
</svg>
