<?xml version="1.0" encoding="utf-8"?>
<!-- Generator: Adobe Illustrator 15.1.0, SVG Export Plug-In . SVG Version: 6.00 Build 0)  -->
<!DOCTYPE svg PUBLIC "-//W3C//DTD SVG 1.1//EN" "http://www.w3.org/Graphics/SVG/1.1/DTD/svg11.dtd">
<svg version="1.1" id="Capa_1" xmlns="http://www.w3.org/2000/svg" xmlns:xlink="http://www.w3.org/1999/xlink" x="0px" y="0px"
	 width="202px" height="161px" viewBox="0 0 202 161" enable-background="new 0 0 202 161" xml:space="preserve">
<g>
	<polygon fill="#3F2D81" points="58.48,151.366 15.96,80.5 58.48,9.634 143.519,9.634 186.039,80.5 143.519,151.366 	"/>
	<g>
		<path fill="#FFFFFF" d="M131.518,47.398v60.926L95.412,77.861L131.518,47.398 M124.853,40.082L88.745,70.543v14.632l36.106,30.464
			l16.778-7.317V47.397L124.853,40.082L124.853,40.082z"/>
	</g>
	<g>
		<path fill="#FFFFFF" d="M73.744,47.398l36.11,30.462l-36.11,30.463V47.398 M80.409,40.082l-16.776,7.316v60.926l16.776,7.317
			l36.11-30.464V70.544L80.409,40.082L80.409,40.082z"/>
	</g>
	
		<line fill="none" stroke="#3F2D81" stroke-width="3.4314" stroke-miterlimit="10" x1="64.383" y1="114.898" x2="76.58" y2="103.352"/>
	
		<line fill="none" stroke="#3F2D81" stroke-width="3.4314" stroke-miterlimit="10" x1="125.424" y1="55.621" x2="137.615" y2="44.075"/>
	
		<line fill="none" stroke="#3F2D81" stroke-width="3.4314" stroke-miterlimit="10" x1="101.122" y1="75.375" x2="113.959" y2="64.491"/>
	
		<line fill="none" stroke="#3F2D81" stroke-width="3.4314" stroke-miterlimit="10" x1="101.526" y1="100.289" x2="114.271" y2="89.31"/>
</g>
</svg>
