<svg version="1.1" id="Capa_1" xmlns="http://www.w3.org/2000/svg" xmlns:xlink="http://www.w3.org/1999/xlink" x="0px" y="0px"
	 width="427.433px" height="96.752px" viewBox="0 0 427.433 96.752" enable-background="new 0 0 427.433 96.752"
	 xml:space="preserve">
<g>
	<path fill="#ECECEC" d="M43.739,57.573c0,2.156-0.428,4.265-1.283,6.328c-0.855,2.062-2.109,3.912-3.764,5.547
		c-1.654,1.637-3.68,2.955-6.076,3.959c-2.398,1.003-5.139,1.505-8.225,1.505c-3.232,0-6.123-0.372-8.67-1.115
		c-2.545-0.742-4.934-1.746-7.164-3.01l2.789-6.69c0.816,0.559,1.801,1.144,2.955,1.757c1.15,0.612,2.377,1.181,3.68,1.699
		c1.299,0.521,2.646,0.958,4.041,1.312s2.74,0.529,4.043,0.529c1.783,0,3.316-0.167,4.6-0.503c1.281-0.334,2.332-0.741,3.148-1.227
		c0.447-0.259,0.873-0.575,1.283-0.947c0.408-0.371,0.771-0.873,1.088-1.506c0.314-0.631,0.566-1.421,0.752-2.369
		c0.186-0.946,0.279-2.091,0.279-3.429c0-1.747-0.383-3.224-1.143-4.433c-0.764-1.207-1.775-2.238-3.039-3.095
		c-1.264-0.854-2.695-1.606-4.293-2.258c-1.6-0.649-3.225-1.318-4.879-2.008c-1.654-0.688-3.281-1.449-4.879-2.285
		c-1.598-0.837-3.029-1.877-4.293-3.123c-1.264-1.244-2.277-2.74-3.037-4.486c-0.764-1.747-1.145-3.885-1.145-6.412
		c0-1.747,0.41-3.502,1.227-5.27c0.818-1.765,1.998-3.363,3.541-4.794s3.438-2.602,5.688-3.513c2.248-0.91,4.803-1.366,7.666-1.366
		c2.303,0,4.459,0.13,6.467,0.39c2.008,0.261,4.014,0.596,6.021,1.003l-1.729,6.746c-2.119-0.742-4.33-1.384-6.635-1.923
		s-4.461-0.809-6.467-0.809c-1.561,0-2.938,0.111-4.127,0.334c-1.189,0.223-2.1,0.558-2.73,1.004
		c-0.67,0.521-1.246,1.272-1.729,2.258c-0.484,0.985-0.725,2.481-0.725,4.488c0,1.599,0.381,2.945,1.143,4.042
		c0.762,1.097,1.773,2.054,3.039,2.871c1.262,0.817,2.693,1.553,4.293,2.202c1.598,0.65,3.232,1.319,4.906,2.007
		c1.672,0.688,3.307,1.469,4.906,2.342c1.598,0.874,3.027,1.943,4.293,3.206c1.262,1.264,2.275,2.789,3.037,4.572
		C43.356,52.888,43.739,55.044,43.739,57.573z"/>
	<path fill="#ECECEC" d="M65.481,48.373l1.617-0.278c2.008-0.335,3.912-0.771,5.715-1.311c1.803-0.538,3.373-1.347,4.711-2.426
		c1.338-1.077,2.406-2.519,3.207-4.32c0.799-1.803,1.197-4.153,1.197-7.053c0-2.155-0.334-4.015-1.004-5.575
		c-0.668-1.562-1.598-2.844-2.787-3.847s-2.639-1.747-4.348-2.23c-1.711-0.481-3.588-0.725-5.631-0.725
		c-1.08,0-2.008,0.027-2.789,0.083c-0.779,0.056-1.746,0.139-2.898,0.251v53.188h-7.75V17.317c2.342-0.187,4.924-0.334,7.75-0.446
		c2.824-0.111,5.594-0.167,8.307-0.167c3.309,0,6.189,0.372,8.643,1.115c2.453,0.744,4.479,1.794,6.076,3.149
		c1.598,1.357,2.787,3.012,3.568,4.962c0.781,1.951,1.17,4.153,1.17,6.606c0,2.563-0.465,4.962-1.393,7.192
		c-0.93,2.229-2.369,4.162-4.32,5.798c-1.951,1.637-4.424,2.928-7.416,3.875c-2.992,0.947-6.551,1.422-10.676,1.422h-0.502
		L65.481,48.373z"/>
	<path fill="#ECECEC" d="M130.879,74.13h-30.496V17.04h29.27l-0.559,4.125l-20.963,0.279v20.237l19.736,0.224l-0.557,3.624
		l-19.179,0.446v23.752l23.305,0.445L130.879,74.13z"/>
	<path fill="#ECECEC" d="M141.807,74.13V17.04h7.75v52.743h21.688l-0.557,4.349L141.807,74.13L141.807,74.13z"/>
	<path fill="#ECECEC" d="M181.95,74.13V17.04h7.748v52.743h21.689l-0.559,4.349L181.95,74.13L181.95,74.13z"/>
	<path fill="#ECECEC" d="M259.055,58.688c0,2.527-0.383,4.775-1.145,6.746s-1.951,3.65-3.566,5.046
		c-1.617,1.394-3.709,2.452-6.273,3.178c-2.564,0.725-5.631,1.087-9.199,1.087c-1.189,0-2.508-0.02-3.957-0.056
		c-1.451-0.037-2.928-0.095-4.434-0.167c-1.506-0.075-2.982-0.168-4.432-0.279c-1.45-0.111-2.771-0.223-3.959-0.334V17.429
		c2.229-0.259,4.6-0.445,7.108-0.558c2.509-0.111,5.009-0.167,7.498-0.167c3.048,0,5.778,0.26,8.194,0.78s4.48,1.319,6.189,2.396
		c1.709,1.079,3.02,2.481,3.93,4.209c0.91,1.729,1.367,3.782,1.367,6.161c0,1.934-0.307,3.644-0.92,5.129
		c-0.613,1.487-1.432,2.771-2.453,3.848c-1.023,1.077-2.195,1.961-3.514,2.647c-1.32,0.688-2.668,1.198-4.041,1.533v0.167
		c2.303,0.483,4.311,1.199,6.021,2.146c1.709,0.948,3.121,2.072,4.236,3.374c1.115,1.303,1.951,2.771,2.508,4.404
		C258.776,55.138,259.055,56.867,259.055,58.688z M248.35,31.145c0-1.858-0.289-3.438-0.863-4.739
		c-0.578-1.3-1.395-2.369-2.453-3.206c-1.061-0.836-2.352-1.45-3.875-1.84c-1.525-0.391-3.234-0.585-5.131-0.585
		c-0.855,0-1.58,0.01-2.174,0.027c-0.594,0.02-1.125,0.047-1.588,0.083c-0.467,0.038-0.885,0.075-1.256,0.112
		c-0.371,0.038-0.762,0.075-1.17,0.111v20.739h7.414c1.525,0,2.908-0.139,4.154-0.418c1.244-0.277,2.295-0.641,3.148-1.087
		c0.408-0.223,0.836-0.548,1.281-0.976c0.447-0.427,0.855-1.004,1.227-1.729c0.373-0.725,0.68-1.616,0.922-2.676
		C248.229,33.905,248.35,32.632,248.35,31.145z M250.971,58.463c0-2.267-0.383-4.199-1.145-5.798
		c-0.762-1.598-1.783-2.899-3.066-3.902c-1.281-1.004-2.777-1.729-4.486-2.175c-1.711-0.445-3.514-0.669-5.408-0.669h-7.025v24.142
		c0.816,0.074,1.904,0.177,3.263,0.307c1.354,0.131,2.853,0.195,4.487,0.195c0.816,0,1.672-0.027,2.564-0.083
		c0.893-0.058,1.756-0.148,2.592-0.279c0.836-0.13,1.607-0.287,2.314-0.474c0.705-0.187,1.281-0.409,1.729-0.67
		c0.482-0.26,0.965-0.612,1.449-1.06c0.482-0.446,0.928-1.077,1.338-1.896c0.408-0.817,0.742-1.841,1.004-3.066
		C250.84,61.81,250.971,60.287,250.971,58.463z"/>
	<path fill="#ECECEC" d="M416.276,19.772c-2.082,0-4.162,0.566-6.244,1.699c-2.082,1.135-4.441,3.021-7.08,5.659
		c-0.744,0.744-1.553,1.58-2.426,2.509c-0.873,0.931-1.783,1.905-2.732,2.928c-0.947,1.021-1.904,2.071-2.871,3.148
		c-0.967,1.079-1.895,2.119-2.787,3.122c1.449,2.565,2.928,5.141,4.434,7.724s3.02,5.073,4.545,7.471
		c1.521,2.396,3.072,4.646,4.652,6.746c1.58,2.1,3.16,3.922,4.74,5.464c1.578,1.542,3.168,2.76,4.766,3.651
		c1.6,0.893,3.197,1.338,4.797,1.338h0.67v2.509c-1.266,0.335-2.453,0.586-3.568,0.753s-2.527,0.251-4.238,0.251
		c-1.746,0-3.41-0.418-4.988-1.255c-1.58-0.836-3.113-1.987-4.6-3.456c-1.488-1.468-2.938-3.178-4.35-5.13
		c-1.412-1.951-2.809-4.051-4.184-6.3c-1.375-2.248-2.738-4.58-4.098-6.997c-1.355-2.415-2.742-4.795-4.154-7.137
		c-0.26,0.299-0.631,0.706-1.111,1.228c-0.484,0.521-0.979,1.059-1.48,1.616c-0.502,0.557-0.975,1.08-1.422,1.562
		c-0.445,0.483-0.762,0.836-0.947,1.061V74.13h-7.75V17.04h7.75v27.318c0.705-0.854,1.541-1.857,2.51-3.011
		c0.967-1.152,1.996-2.369,3.096-3.651c1.096-1.282,2.221-2.603,3.373-3.958c1.148-1.356,2.266-2.648,3.344-3.875
		c1.078-1.228,2.1-2.37,3.066-3.429c0.967-1.061,1.803-1.942,2.51-2.648c1.375-1.375,2.621-2.509,3.736-3.401
		c1.111-0.892,2.219-1.589,3.314-2.091s2.23-0.854,3.4-1.059c1.172-0.204,2.518-0.308,4.043-0.308c0.705,0,1.318,0.037,1.84,0.111
		c0.52,0.075,0.928,0.167,1.227,0.279v2.453L416.276,19.772L416.276,19.772z"/>
</g>
<g>
	<path fill="#FFFFFF" d="M317.917,86.687c0,0,1.123-13.522,41.697-13.522V17.937c0,0-41.697-1.129-41.697,20.286
		S317.917,86.687,317.917,86.687z"/>
	<path fill="#FFFFFF" d="M295.434,17.163c8.506,2.414,13.658,5.933,16.688,9.714c-0.607-20.999-34.227-19.591-34.227-19.591
		l0.064,7.062C282.815,14.658,289.243,15.405,295.434,17.163z"/>
	<path fill="#FFFFFF" d="M312.614,86.687c0,0-1.125-13.522-41.699-13.522V17.938c0,0,41.699-1.13,41.699,20.285
		C312.614,59.637,312.614,86.687,312.614,86.687z"/>
</g>
</svg>
