<?xml version="1.0" encoding="utf-8"?>
<!-- Generator: Adobe Illustrator 15.1.0, SVG Export Plug-In . SVG Version: 6.00 Build 0)  -->
<!DOCTYPE svg PUBLIC "-//W3C//DTD SVG 1.1//EN" "http://www.w3.org/Graphics/SVG/1.1/DTD/svg11.dtd">
<svg version="1.1" id="Capa_1" xmlns="http://www.w3.org/2000/svg" xmlns:xlink="http://www.w3.org/1999/xlink" x="0px" y="0px"
	 width="260px" height="194px" viewBox="563.445 127.14 260 194" enable-background="new 563.445 127.14 260 194"
	 xml:space="preserve">
<path fill="#FFFFFF" d="M811.642,158.508c0,0.303,0,0.583,0,0.863c-4.857,10.298-19.707,13.708-23.328,23.234
	c-3.562,9.34-1.166,19.639-2.812,27.531c-11.268,54.572-56.85,100.668-121.37,104.918c-39.533,2.615-69.69-5.418-89.621-19.779
	c31.325,1.354,53.382-5.861,69.084-18.914c-23.666-1.984-37.314-13.217-43.889-30.964c6.375-0.724,16.159,1.681,19.615-1.729
	c-22.207-5.627-35.424-19.544-37.352-43.854c6.306,1.635,12.342,3.526,18.669,5.161c1.8-3.176-4.108-5.066-6.537-7.753
	c-10.952-12.096-15.995-35.797-5.594-52.47c24.963,22.884,54.644,46.002,101.777,45.581c-6.492-39.744,32.667-64.566,68.15-50.742
	c6.854,2.686,11.149,9.691,17.733,10.321c11.291,1.098,21.041-10.135,28.935-8.594c-1.799,4.203-3.877,8.873-7.461,12.891
	c-3.06,3.433-10.496,6.468-8.396,9.457C797.726,162.874,803.247,159.371,811.642,158.508z"/>
</svg>
